<?xml version="1.0" encoding="iso-8859-1"?>
<!-- Generator: Adobe Illustrator 19.0.0, SVG Export Plug-In . SVG Version: 6.00 Build 0)  -->
<svg version="1.1" id="Layer_1" xmlns="http://www.w3.org/2000/svg" xmlns:xlink="http://www.w3.org/1999/xlink" x="0px" y="0px"
	 viewBox="0 0 511.999 511.999" style="enable-background:new 0 0 511.999 511.999;" xml:space="preserve">
<g>
	<g>
		<path d="M169.768,208.964h15.678c0-38.903,31.649-70.552,70.552-70.552v-15.678C208.452,122.734,169.768,161.417,169.768,208.964z
			"/>
	</g>
</g>
<g>
	<g>
		<path d="M391.876,342.229h-7.839V208.964c0-70.6-57.438-128.037-128.038-128.037S127.96,138.364,127.96,208.964v133.264h-7.839
			c-15.849,0-28.743,12.894-28.743,28.743v60.1h329.242v-60.1C420.619,355.124,407.724,342.229,391.876,342.229z M143.638,208.964
			c0-61.955,50.405-112.359,112.36-112.359s112.36,50.404,112.36,112.359v133.264H143.638V208.964z M404.941,378.811h-78.914v15.678
			h78.914v20.904H107.056v-20.904h84.14v-15.678h-84.14v-7.839c0-7.205,5.861-13.065,13.065-13.065h271.755
			c7.205,0,13.065,5.861,13.065,13.065V378.811z"/>
	</g>
</g>
<g>
	<g>
		<path d="M463.86,127.279l-11.087,11.086c58.072,58.073,58.072,152.564,0,210.636l11.087,11.086
			C528.045,295.902,528.045,191.464,463.86,127.279z"/>
	</g>
</g>
<g>
	<g>
		<path d="M433.065,158.073l-11.087,11.086c41.093,41.093,41.093,107.955,0,149.047l11.087,11.086
			C480.271,282.087,480.271,205.279,433.065,158.073z"/>
	</g>
</g>
<g>
	<g>
		<path d="M59.225,138.364l-11.087-11.086c-64.184,64.185-64.184,168.623,0,232.808l11.087-11.086
			C1.152,290.929,1.152,196.437,59.225,138.364z"/>
	</g>
</g>
<g>
	<g>
		<path d="M90.019,169.161l-11.087-11.087c-47.205,47.205-47.205,124.014,0,171.219l11.087-11.086
			C48.926,277.115,48.926,210.253,90.019,169.161z"/>
	</g>
</g>
<g>
	<g>
		<path d="M279.516,319.461v-37.126c9.514-7.158,15.678-18.54,15.678-31.335c0-21.613-17.583-39.195-39.195-39.195
			c-21.613,0-39.195,17.583-39.195,39.195c0,12.795,6.165,24.177,15.678,31.335v37.126H214.19v15.678h83.617v-15.678H279.516z
			 M263.838,319.461h-15.678v-30.055c2.534,0.516,5.155,0.789,7.839,0.789c2.684,0,5.306-0.273,7.839-0.789V319.461z
			 M255.998,274.517c-12.967,0-23.517-10.549-23.517-23.517c0-12.968,10.55-23.517,23.517-23.517
			c12.967,0,23.517,10.549,23.517,23.517C279.516,263.968,268.965,274.517,255.998,274.517z"/>
	</g>
</g>
<g>
	<g>
		<rect x="214.194" y="378.815" width="15.678" height="15.678"/>
	</g>
</g>
<g>
	<g>
		<rect x="287.359" y="378.815" width="15.678" height="15.678"/>
	</g>
</g>
<g>
	<g>
		<rect x="250.777" y="378.815" width="15.678" height="15.678"/>
	</g>
</g>
<g>
</g>
<g>
</g>
<g>
</g>
<g>
</g>
<g>
</g>
<g>
</g>
<g>
</g>
<g>
</g>
<g>
</g>
<g>
</g>
<g>
</g>
<g>
</g>
<g>
</g>
<g>
</g>
<g>
</g>
</svg>
